<?xml version="1.0" encoding="utf-8" standalone="no"?><!DOCTYPE svg PUBLIC "-//W3C//DTD SVG 20010904//EN" "http://www.w3.org/TR/2001/REC-SVG-20010904/DTD/svg10.dtd"><svg xmlns="http://www.w3.org/2000/svg" width="897" height="620" xmlns:xlink="http://www.w3.org/1999/xlink"><source><![CDATA[User->Web API: Http Request
Note right of User:  POST \n/api/sendPOST\n{"name":"chair", \n"price":"100"}
Web API->Data Access: Create object
Data Access->MongoDB: Insert object, save in DB
MongoDB->Data Access: Return object
Data Access->Web API: Return object
Web API->User: Http Response
Note right of User:  {"_id":"59d3ca05e7ed480332a037b8",\n"name":"chair",\n"price":"100",\n"__v":0}]]></source><desc></desc><defs><marker viewBox="0 0 5 5" markerWidth="5" markerHeight="5" orient="auto" refX="5" refY="2.5" id="markerArrowBlock"><path d="M 0 0 L 5 2.5 L 0 5 z"></path></marker><marker viewBox="0 0 9.6 16" markerWidth="4" markerHeight="16" orient="auto" refX="9.6" refY="8" id="markerArrowOpen"><path d="M 9.6,8 1.92,16 0,13.7 5.76,8 0,2.286 1.92,0 9.6,8 z"></path></marker></defs><g class="title"></g><g class="actor"><path d="M10,20C60.1,17.5 20.2,22.5 73.7,20.0C75.4,52.3 72.0,54.6 73.7,62.5C25.3,60.0 58.4,65.0 10.0,62.5C11.7,35.6 8.3,52.3 10.0,20.0" stroke="#000000" fill="#ffffff" style="stroke-width: 2;"></path><text x="20" y="44" style="font-size: 16px; font-family: danielbd;"><tspan x="20">User</tspan></text></g><g class="actor"><path d="M10,557.6875C38.2,560.2 34.2,555.1 73.7,557.7C75.4,590.0 72.0,581.2 73.7,600.2C57.9,602.7 50.6,597.6 10.0,600.2C8.3,569.7 11.7,586.3 10.0,557.7" stroke="#000000" fill="#ffffff" style="stroke-width: 2;"></path><text x="20" y="581.6875" style="font-size: 16px; font-family: danielbd;"><tspan x="20">User</tspan></text></g><path d="M41.8,62.5C61.6,311.5 22.0,438.8 41.8,557.7" stroke="#000000" fill="none" style="stroke-width: 2;"></path><g class="actor"><path d="M396.65625,20C410.9,23.5 444.8,16.5 485.0,20.0C483.3,47.8 486.7,30.2 485.0,62.5C443.6,59.0 434.9,66.0 396.7,62.5C395.0,52.3 398.4,39.7 396.7,20.0" stroke="#000000" fill="#ffffff" style="stroke-width: 2;"></path><text x="406.65625" y="44" style="font-size: 16px; font-family: danielbd;"><tspan x="406.65625">Web API</tspan></text></g><g class="actor"><path d="M396.65625,557.6875C452.5,554.2 432.7,561.2 485.0,557.7C486.7,590.0 483.3,567.9 485.0,600.2C431.8,596.7 439.1,603.7 396.7,600.2C398.4,592.9 395.0,579.9 396.7,557.7" stroke="#000000" fill="#ffffff" style="stroke-width: 2;"></path><text x="406.65625" y="581.6875" style="font-size: 16px; font-family: danielbd;"><tspan x="406.65625">Web API</tspan></text></g><path d="M440.8,62.5C460.6,352.3 421.0,181.3 440.8,557.7" stroke="#000000" fill="none" style="stroke-width: 2;"></path><g class="actor"><path d="M517.484375,20C562.0,14.9 623.5,25.1 643.8,20.0C645.5,48.3 642.0,55.7 643.8,62.5C574.5,67.6 552.5,57.4 517.5,62.5C515.8,55.7 519.2,52.3 517.5,20.0" stroke="#000000" fill="#ffffff" style="stroke-width: 2;"></path><text x="527.484375" y="44" style="font-size: 16px; font-family: danielbd;"><tspan x="527.484375">Data Access</tspan></text></g><g class="actor"><path d="M517.484375,557.6875C613.4,552.6 553.6,562.7 643.8,557.7C642.0,585.6 645.5,574.4 643.8,600.2C613.4,595.1 620.3,605.2 517.5,600.2C519.2,577.2 515.8,592.7 517.5,557.7" stroke="#000000" fill="#ffffff" style="stroke-width: 2;"></path><text x="527.484375" y="581.6875" style="font-size: 16px; font-family: danielbd;"><tspan x="527.484375">Data Access</tspan></text></g><path d="M580.6,62.5C600.4,438.8 560.8,181.3 580.6,557.7" stroke="#000000" fill="none" style="stroke-width: 2;"></path><g class="actor"><path d="M762.2578125,20C841.9,24.2 787.4,15.8 867.1,20.0C865.4,26.8 868.8,45.5 867.1,62.5C829.8,66.7 841.9,58.3 762.3,62.5C764.0,39.8 760.6,26.8 762.3,20.0" stroke="#000000" fill="#ffffff" style="stroke-width: 2;"></path><text x="772.2578125" y="44" style="font-size: 16px; font-family: danielbd;"><tspan x="772.2578125">MongoDB</tspan></text></g><g class="actor"><path d="M762.2578125,557.6875C819.2,561.9 811.5,553.5 867.1,557.7C868.8,590.0 865.4,593.4 867.1,600.2C785.9,604.4 841.1,596.0 762.3,600.2C760.6,564.5 764.0,581.1 762.3,557.7" stroke="#000000" fill="#ffffff" style="stroke-width: 2;"></path><text x="772.2578125" y="581.6875" style="font-size: 16px; font-family: danielbd;"><tspan x="772.2578125">MongoDB</tspan></text></g><path d="M814.7,62.5C794.9,291.4 834.5,340.6 814.7,557.7" stroke="#000000" fill="none" style="stroke-width: 2;"></path><g class="signal"><text x="181.9921875" y="90.25" style="font-size: 16px; font-family: danielbd;"><tspan x="181.9921875">Http Request</tspan></text><path d="M41.8,105.0C324.7,121.0 137.6,89.0 440.8,105.0" stroke="#000000" fill="none" style="stroke-width: 2; marker-end: url(&quot;#markerArrowBlock&quot;);"></path></g><g class="note"><path d="M61.8359375,125C137.0,118.9 121.5,131.1 214.8,125.0C218.4,177.9 211.2,200.7 214.8,215.1C160.0,209.0 161.0,221.2 61.8,215.1C65.4,146.6 58.2,193.5 61.8,125.0" stroke="#000000" fill="#ffffff" style="stroke-width: 2;"></path><text x="66.8359375" y="144" style="font-size: 16px; font-family: danielbd;"><tspan x="66.8359375">POST</tspan><tspan dy="1.2em" x="66.8359375">/api/sendPOST</tspan><tspan dy="1.2em" x="66.8359375">{"name":"chair",</tspan><tspan dy="1.2em" x="66.8359375">"price":"100"}</tspan></text></g><g class="signal"><text x="450.8203125" y="242.84375" style="font-size: 16px; font-family: danielbd;"><tspan x="450.8203125">Create object</tspan></text><path d="M440.8,257.6C543.8,263.2 537.9,252.0 580.6,257.6" stroke="#000000" fill="none" style="stroke-width: 2; marker-end: url(&quot;#markerArrowBlock&quot;);"></path></g><g class="signal"><text x="590.6171875" y="285.34375" style="font-size: 16px; font-family: danielbd;"><tspan x="590.6171875">Insert object, save in DB</tspan></text><path d="M580.6,300.1C636.8,309.5 650.5,290.7 814.7,300.1" stroke="#000000" fill="none" style="stroke-width: 2; marker-end: url(&quot;#markerArrowBlock&quot;);"></path></g><g class="signal"><text x="638.2265625" y="327.84375" style="font-size: 16px; font-family: danielbd;"><tspan x="638.2265625">Return object</tspan></text><path d="M814.7,342.6C724.9,352.0 777.2,333.2 580.6,342.6" stroke="#000000" fill="none" style="stroke-width: 2; marker-end: url(&quot;#markerArrowBlock&quot;);"></path></g><g class="signal"><text x="451.296875" y="370.34375" style="font-size: 16px; font-family: danielbd;"><tspan x="451.296875">Return object</tspan></text><path d="M580.6,385.1C488.8,390.7 531.0,379.5 440.8,385.1" stroke="#000000" fill="none" style="stroke-width: 2; marker-end: url(&quot;#markerArrowBlock&quot;);"></path></g><g class="signal"><text x="178.859375" y="412.84375" style="font-size: 16px; font-family: danielbd;"><tspan x="178.859375">Http Response</tspan></text><path d="M440.8,427.6C377.0,443.6 199.8,411.6 41.8,427.6" stroke="#000000" fill="none" style="stroke-width: 2; marker-end: url(&quot;#markerArrowBlock&quot;);"></path></g><g class="note"><path d="M61.8359375,447.59375C120.1,462.0 363.4,433.2 420.8,447.6C417.2,507.3 424.4,514.3 420.8,537.7C148.0,552.0 277.5,523.3 61.8,537.7C65.4,470.8 58.2,464.5 61.8,447.6" stroke="#000000" fill="#ffffff" style="stroke-width: 2;"></path><text x="66.8359375" y="466.59375" style="font-size: 16px; font-family: danielbd;"><tspan x="66.8359375">{"_id":"59d3ca05e7ed480332a037b8",</tspan><tspan dy="1.2em" x="66.8359375">"name":"chair",</tspan><tspan dy="1.2em" x="66.8359375">"price":"100",</tspan><tspan dy="1.2em" x="66.8359375">"__v":0}</tspan></text></g></svg>